<?xml version="1.0" standalone="no"?>
<!DOCTYPE svg PUBLIC "-//W3C//DTD SVG 20010904//EN"
 "http://www.w3.org/TR/2001/REC-SVG-20010904/DTD/svg10.dtd">
<svg version="1.0" xmlns="http://www.w3.org/2000/svg"
 width="500.000000pt" height="500.000000pt" viewBox="0 0 500.000000 500.000000"
 preserveAspectRatio="xMidYMid meet">

<g transform="translate(0.000000,500.000000) scale(0.100000,-0.100000)"
fill="#000000" stroke="none">
<path d="M1580 3080 l0 -470 195 0 195 0 0 90 0 89 -97 3 -98 3 -3 35 c-2 19
-1 68 3 108 l7 72 84 0 84 0 0 90 0 89 -87 3 -88 3 -3 35 c-2 19 -1 59 3 88
l6 52 90 0 c84 0 89 -1 94 -22 2 -13 23 -174 45 -358 22 -184 42 -345 45 -357
5 -22 9 -23 133 -23 l129 0 50 398 51 397 1 -397 1 -398 290 0 290 0 1 213 1
212 29 -140 c16 -77 36 -173 45 -212 l15 -73 95 0 94 0 0 470 0 470 -95 0 -95
0 -1 -197 -1 -198 -33 161 c-18 88 -35 177 -39 197 l-7 37 -99 0 -100 0 0
-380 0 -380 -95 0 -95 0 0 110 0 110 88 0 87 0 -3 90 -3 90 -85 0 -84 0 0 90
0 90 90 0 90 0 0 90 0 90 -274 0 -273 0 -6 -47 c-4 -27 -16 -151 -28 -278 -12
-126 -25 -233 -28 -237 -4 -4 -19 113 -34 260 -16 147 -31 275 -33 285 -5 16
-27 17 -275 17 l-269 0 0 -470z"/>
<path d="M2383 2569 c-40 -12 -65 -47 -65 -93 0 -66 35 -99 106 -98 34 1 46 6
69 33 69 83 -5 188 -110 158z"/>
<path d="M1500 2460 l0 -90 55 0 55 0 0 -380 0 -380 95 0 95 0 0 328 c0 180 3
351 6 380 l7 52 53 0 54 0 0 90 0 90 -210 0 -210 0 0 -90z"/>
<path d="M2614 2521 c-34 -21 -72 -67 -97 -116 -9 -17 -50 -143 -93 -280 -88
-287 -94 -334 -50 -409 14 -25 38 -53 54 -64 70 -50 197 -67 262 -34 51 25 92
87 124 185 44 141 46 136 -54 167 l-85 27 -31 -93 c-35 -105 -48 -126 -77
-122 -41 6 -37 38 29 255 89 295 100 323 128 323 46 0 50 -21 22 -117 -14 -48
-22 -91 -18 -94 19 -15 163 -52 171 -43 15 16 61 187 61 226 0 73 -46 139
-125 181 -59 30 -179 35 -221 8z"/>
<path d="M2140 2365 c0 -15 -18 -185 -41 -377 -23 -193 -37 -353 -33 -358 5
-4 45 -11 89 -15 l81 -7 44 381 c24 209 42 382 39 385 -2 3 -44 8 -92 12 l-87
7 0 -28z"/>
<path d="M3460 2133 c-113 -58 -298 -153 -411 -212 l-207 -106 50 -78 50 -77
63 35 c35 19 66 35 69 35 3 0 17 -21 32 -46 l27 -47 -29 -21 c-16 -11 -42 -33
-59 -47 l-29 -27 47 -71 c26 -39 49 -71 52 -71 9 0 729 566 732 576 5 15 -153
259 -169 261 -7 1 -105 -46 -218 -104z m155 -122 c-34 -32 -352 -270 -358
-268 -13 4 -42 55 -35 62 6 7 391 214 398 215 2 0 0 -4 -5 -9z"/>
<path d="M1403 1443 c-7 -3 -13 -18 -13 -34 0 -24 4 -29 23 -28 19 1 19 2 3 6
-15 4 -16 7 -5 14 12 8 12 10 0 18 -11 7 -10 10 5 13 10 2 15 6 9 9 -5 4 -16
4 -22 2z"/>
<path d="M1337 1425 c-4 -8 -4 -22 0 -31 5 -13 7 -13 14 -2 7 11 11 10 19 -2
8 -12 10 -8 8 15 -3 33 -31 47 -41 20z m28 -5 c3 -5 1 -10 -4 -10 -6 0 -11 5
-11 10 0 6 2 10 4 10 3 0 8 -4 11 -10z"/>
<path d="M1434 1429 c-4 -7 1 -16 11 -21 13 -8 14 -12 5 -18 -7 -4 7 -8 31 -8
33 0 39 2 24 8 -11 5 -14 9 -6 9 8 1 11 7 7 17 -4 10 -1 14 6 12 7 -3 14 -10
14 -16 1 -7 2 -18 3 -24 1 -9 4 -8 11 2 9 13 11 13 20 0 8 -12 10 -8 8 15 -3
28 -6 30 -45 32 -37 2 -43 0 -43 -17 0 -13 -5 -18 -15 -14 -8 4 -15 10 -15 16
0 5 5 6 10 3 6 -3 10 -1 10 4 0 15 -27 14 -36 0z m121 -9 c3 -5 1 -10 -4 -10
-6 0 -11 5 -11 10 0 6 2 10 4 10 3 0 8 -4 11 -10z"/>
<path d="M1580 1432 c0 -7 5 -23 11 -34 11 -21 12 -21 25 3 l13 24 1 -22 c0
-17 6 -23 23 -23 12 0 18 4 12 8 -5 4 -10 14 -10 22 0 8 5 18 10 22 6 4 -3 7
-19 6 -19 -2 -31 -9 -34 -22 -5 -17 -6 -16 -18 5 -7 13 -13 18 -14 11z"/>
<path d="M1709 1408 c3 -24 6 -27 9 -13 2 11 9 26 14 33 8 9 5 12 -9 12 -16 0
-19 -5 -14 -32z"/>
<path d="M1750 1410 c0 -28 2 -30 40 -30 29 0 40 4 40 15 0 8 -4 15 -10 15 -5
0 -10 5 -10 11 0 5 5 7 10 4 6 -3 10 -1 10 4 0 15 -27 14 -36 -1 -4 -6 1 -17
11 -25 17 -12 16 -13 -16 -13 -23 0 -30 3 -20 9 10 6 10 10 1 16 -9 6 -9 10 1
16 11 7 10 9 -3 9 -13 0 -18 -8 -18 -30z"/>
<path d="M1860 1410 c0 -25 4 -30 23 -29 21 0 21 1 2 9 -11 5 -14 9 -6 9 11 1
11 4 1 16 -10 12 -10 15 4 15 9 0 19 -12 22 -27 7 -24 8 -25 14 -8 11 30 3 41
-30 43 -27 2 -30 -1 -30 -28z"/>
<path d="M1947 1426 c-19 -20 -21 -32 -7 -41 6 -3 10 3 10 14 0 28 16 27 24
-1 6 -26 20 -16 30 22 l7 25 -14 -23 -13 -23 -10 22 c-9 20 -11 21 -27 5z"/>
<path d="M2025 1426 c-25 -18 -14 -41 21 -44 22 -1 25 1 14 8 -12 8 -12 10 -1
10 10 0 11 3 2 14 -9 11 -9 15 1 19 9 4 8 6 -3 6 -8 1 -24 -5 -34 -13z"/>
<path d="M2084 1428 c-4 -6 1 -17 10 -24 16 -12 16 -13 -1 -17 -14 -4 -14 -5
5 -6 26 -1 29 16 5 36 -17 14 -17 14 0 9 11 -3 16 -2 12 4 -8 13 -22 13 -31
-2z"/>
</g>
</svg>
